<svg xmlns="http://www.w3.org/2000/svg" viewBox="0 0 800 450" width="100%" height="100%">
  <defs>
    <linearGradient id="bg-grad-1" x1="0%" y1="0%" x2="100%" y2="100%">
      <stop offset="0%" stop-color="#0b132b"/>
      <stop offset="50%" stop-color="#1c2541"/>
      <stop offset="100%" stop-color="#0a1128"/>
    </linearGradient>
    <linearGradient id="beam-grad" x1="0%" y1="0%" x2="100%" y2="0%">
      <stop offset="0%" stop-color="#00f5d4" stop-opacity="0.8"/>
      <stop offset="50%" stop-color="#7b2cbf" stop-opacity="0.9"/>
      <stop offset="100%" stop-color="#f72585" stop-opacity="1"/>
    </linearGradient>
    <linearGradient id="crystal-grad" x1="0%" y1="0%" x2="0%" y2="100%">
      <stop offset="0%" stop-color="#00f5d4"/>
      <stop offset="50%" stop-color="#00bbf9"/>
      <stop offset="100%" stop-color="#4361ee"/>
    </linearGradient>
    <filter id="glow-1" x="-20%" y="-20%" width="140%" height="140%">
      <feGaussianBlur stdDeviation="8" result="blur" />
      <feComposite in="SourceGraphic" in2="blur" operator="over" />
    </filter>
    <pattern id="grid-1" width="40" height="40" patternUnits="userSpaceOnUse">
      <path d="M 40 0 L 0 0 0 40" fill="none" stroke="#00f5d4" stroke-width="0.5" stroke-opacity="0.15" />
    </pattern>
  </defs>
  <rect width="800" height="450" fill="url(#bg-grad-1)"/>
  <rect width="800" height="450" fill="url(#grid-1)"/>
  <circle cx="400" cy="220" r="180" fill="#7b2cbf" opacity="0.25" filter="url(#glow-1)"/>
  <circle cx="400" cy="220" r="90" fill="#00f5d4" opacity="0.2" filter="url(#glow-1)"/>
  <path d="M 120 380 L 680 380 L 580 270 L 220 270 Z" fill="#132040" stroke="#00f5d4" stroke-opacity="0.4" stroke-width="1.5"/>
  <line x1="220" y1="270" x2="120" y2="380" stroke="#00f5d4" stroke-opacity="0.4"/>
  <line x1="340" y1="270" x2="300" y2="380" stroke="#00f5d4" stroke-opacity="0.4"/>
  <line x1="460" y1="270" x2="500" y2="380" stroke="#00f5d4" stroke-opacity="0.4"/>
  <line x1="580" y1="270" x2="680" y2="380" stroke="#00f5d4" stroke-opacity="0.4"/>
  <polygon points="400,90 435,190 400,240 365,190" fill="url(#crystal-grad)" filter="url(#glow-1)"/>
  <polygon points="400,90 420,190 400,240" fill="#ffffff" opacity="0.6"/>
  <polygon points="400,240 440,290 360,290" fill="#1c2541" stroke="#00f5d4" stroke-width="2"/>
  <polygon points="260,170 285,230 260,260 235,230" fill="url(#crystal-grad)" filter="url(#glow-1)" opacity="0.85"/>
  <polygon points="260,260 285,295 235,295" fill="#1c2541" stroke="#00f5d4" stroke-width="1.5"/>
  <polygon points="540,170 565,230 540,260 515,230" fill="url(#crystal-grad)" filter="url(#glow-1)" opacity="0.85"/>
  <polygon points="540,260 565,295 515,295" fill="#1c2541" stroke="#00f5d4" stroke-width="1.5"/>
  <line x1="400" y1="180" x2="620" y2="340" stroke="url(#beam-grad)" stroke-width="4" filter="url(#glow-1)"/>
  <line x1="260" y1="220" x2="180" y2="330" stroke="#00f5d4" stroke-width="3" filter="url(#glow-1)"/>
  <circle cx="620" cy="340" r="14" fill="#f72585" filter="url(#glow-1)"/>
  <circle cx="180" cy="330" r="10" fill="#f72585" filter="url(#glow-1)"/>
  <polygon points="620,330 635,345 620,360 605,345" fill="#f72585"/>
  <polygon points="550,340 562,352 550,365 538,352" fill="#f72585"/>
  <polygon points="180,320 192,332 180,345 168,332" fill="#f72585"/>
  <rect x="25" y="25" width="170" height="36" rx="6" fill="#0b132b" fill-opacity="0.85" stroke="#00f5d4" stroke-width="1.5"/>
  <text x="35" y="48" fill="#00f5d4" font-family="'JetBrains Mono', monospace" font-size="12" font-weight="bold">WAVE 14 // ACTIVE</text>
  <rect x="605" y="25" width="170" height="36" rx="6" fill="#0b132b" fill-opacity="0.85" stroke="#f72585" stroke-width="1.5"/>
  <text x="620" y="48" fill="#f72585" font-family="'JetBrains Mono', monospace" font-size="12" font-weight="bold">CORE INTEGRITY: 100%</text>
  <rect x="220" y="400" width="360" height="32" rx="6" fill="#0b132b" fill-opacity="0.9" stroke="#7b2cbf" stroke-width="1.5"/>
  <text x="400" y="422" fill="#ffffff" font-family="system-ui, sans-serif" font-size="13" font-weight="bold" text-anchor="middle" letter-spacing="2">MARIYA'S MYTHICAL MAYHEM • 3D</text>
</svg>
